Coordinates
version=1
nRows=8
nColumns=40
inDegrees=yes

Units are S.I. units (second, meters, Newtons, ...)
If the header above contains a line with 'inDegrees', this indicates whether rotational values are in degrees (yes) or radians (no).

endheader
time	pelvis_tilt	pelvis_list	pelvis_rotation	pelvis_tx	pelvis_ty	pelvis_tz	hip_flexion_r	hip_adduction_r	hip_rotation_r	knee_angle_r	knee_angle_r_beta	ankle_angle_r	subtalar_angle_r	mtp_angle_r	hip_flexion_l	hip_adduction_l	hip_rotation_l	knee_angle_l	knee_angle_l_beta	ankle_angle_l	subtalar_angle_l	mtp_angle_l	lumbar_extension	lumbar_bending	lumbar_rotation	arm_flex_r	arm_add_r	arm_rot_r	elbow_flex_r	pro_sup_r	wrist_flex_r	wrist_dev_r	arm_flex_l	arm_add_l	arm_rot_l	elbow_flex_l	pro_sup_l	wrist_flex_l	wrist_dev_l
      3.03500000	      5.30324257	     -2.07801383	      3.32219165	     -0.32780316	      0.94433493	     -1.00879854	     37.62904472	     -8.02110988	      4.84532051	     22.73214690	      0.39675081	      4.65125243	      0.00000000	      0.00000000	     27.19480764	     -3.54134805	     -8.01206780	     62.12069341	      1.08421063	     15.29895825	      0.00000000	      0.00000000	    -14.26314654	     -3.22976201	     -6.02590269	     89.16835471	     -7.60499248	     62.26098958	     48.32431653	     83.81065205	      0.00000000	      0.00000000	     89.87427239	    -16.83154971	     59.88892109	     54.09036354	     81.61000080	      0.00000000	      0.00000000
      3.04000000	      5.31554336	     -2.07660024	      3.36667832	     -0.32804187	      0.94384519	     -1.00870758	     37.68088755	     -8.07210473	      4.82208592	     22.82139220	      0.39830843	      4.50211440	      0.00000000	      0.00000000	     27.26534543	     -3.53599965	     -7.96749076	     62.24613717	      1.08640004	     15.32303151	      0.00000000	      0.00000000	    -14.30033375	     -3.26069705	     -6.05245395	     89.17769094	     -7.55012665	     62.31036758	     48.18258322	     83.64311210	      0.00000000	      0.00000000	     89.87491736	    -16.83097565	     59.82960950	     54.09066370	     81.99993316	      0.00000000	      0.00000000
      3.04500000	      5.29494378	     -2.14345575	      3.41705345	     -0.32827571	      0.94335064	     -1.00862834	     37.73475845	     -8.05477280	      4.80916416	     22.85535432	      0.39890118	      4.49217084	      0.00000000	      0.00000000	     27.38434351	     -3.59172976	     -7.88309823	     62.37553451	      1.08865845	     15.36152332	      0.00000000	      0.00000000	    -14.30951927	     -3.22226490	     -6.07691472	     89.16716147	     -7.56298654	     62.27306201	     48.22953457	     83.58687279	      0.00000000	      0.00000000	     89.87537139	    -16.83416443	     59.76004452	     54.10638220	     82.18428098	      0.00000000	      0.00000000
      3.05000000	      5.26971782	     -2.15215723	      3.39273965	     -0.32855201	      0.94272566	     -1.00845477	     37.85749653	     -8.05560287	      4.85026321	     22.97686662	      0.40102197	      4.43867786	      0.00000000	      0.00000000	     27.50397038	     -3.61497654	     -7.86736862	     62.53729321	      1.09148167	     15.42306609	      0.00000000	      0.00000000	    -14.30962199	     -3.25407635	     -6.05789067	     89.18224182	     -7.52191308	     62.14043424	     48.24004778	     83.58308298	      0.00000000	      0.00000000	     89.87624652	    -16.86240386	     59.70206004	     54.14483233	     81.84246202	      0.00000000	      0.00000000
      3.05500000	      5.27473247	     -2.17014731	      3.41217098	     -0.32876969	      0.94216055	     -1.00834609	     37.90802262	     -8.06713078	      4.85440379	     23.03282459	      0.40199863	      4.42393819	      0.00000000	      0.00000000	     27.59156837	     -3.62064248	     -7.78644666	     62.67562722	      1.09389606	     15.45111408	      0.00000000	      0.00000000	    -14.33974075	     -3.26517823	     -6.06222692	     89.21344318	     -7.54176931	     62.30880005	     48.36268150	     82.04191619	      0.00000000	      0.00000000	     89.87668292	    -16.88664920	     59.69386105	     54.20367389	     80.40037618	      0.00000000	      0.00000000
      3.06000000	      5.23593310	     -2.11648246	      3.38582077	     -0.32902748	      0.94157304	     -1.00823029	     38.05064453	     -8.11361548	      4.98754755	     23.16440445	      0.40429513	      4.40959189	      0.00000000	      0.00000000	     27.69597680	     -3.58726350	     -7.84044971	     62.81354624	      1.09630320	     15.43832596	      0.00000000	      0.00000000	    -14.33241785	     -3.37144597	     -6.06003957	     89.19022660	     -7.49265275	     62.00367805	     48.31861226	     83.68534152	      0.00000000	      0.00000000	     89.87711453	    -16.88544458	     59.48839883	     54.14117517	     81.94814129	      0.00000000	      0.00000000
      3.06500000	      5.23240127	     -2.12504219	      3.39041636	     -0.32925787	      0.94113080	     -1.00805866	     38.10975828	     -8.12784676	      4.96361227	     23.21881644	      0.40524480	      4.33118806	      0.00000000	      0.00000000	     27.78001144	     -3.61527121	     -7.82466941	     62.93957926	      1.09850289	     15.49093454	      0.00000000	      0.00000000	    -14.35730441	     -3.40761152	     -6.02036508	     89.20239676	     -7.52168704	     61.97787550	     48.34483351	     83.54399581	      0.00000000	      0.00000000	     89.87722499	    -16.82294576	     59.41127818	     54.10433026	     82.07573700	      0.00000000	      0.00000000
      3.07000000	      5.27765336	     -2.12713983	      3.41037362	     -0.32950141	      0.94068381	     -1.00793333	     38.12099760	     -8.16037388	      4.89793115	     23.29081933	      0.40650148	      4.38322225	      0.00000000	      0.00000000	     27.81172900	     -3.65630020	     -7.84045368	     63.04308703	      1.10030944	     15.57919339	      0.00000000	      0.00000000	    -14.42642877	     -3.42693524	     -6.06281496	     89.20996377	     -7.43883734	     61.88045582	     48.33364825	     83.76509203	      0.00000000	      0.00000000	     89.87808175	    -16.88059190	     59.37998467	     54.12734943	     81.76993095	      0.00000000	      0.00000000
